<svg xmlns="http://www.w3.org/2000/svg" xmlns:xlink="http://www.w3.org/1999/xlink" width="1080" zoomAndPan="magnify" viewBox="0 0 810 809.999993" height="1080" preserveAspectRatio="xMidYMid meet" version="1.0"><defs><filter x="0%" y="0%" width="100%" height="100%" id="e879909950"><feColorMatrix values="0 0 0 0 1 0 0 0 0 1 0 0 0 0 1 0 0 0 1 0" color-interpolation-filters="sRGB"/></filter><linearGradient x1="540" gradientTransform="matrix(0.75, 0, 0, 0.75, 0.0000035, 0.00002)" y1="0" x2="540" gradientUnits="userSpaceOnUse" y2="1079.999955" id="88be4bf8e0"><stop stop-opacity="1" stop-color="rgb(93.699646%, 43.499756%, 87.098694%)" offset="0"/><stop stop-opacity="1" stop-color="rgb(93.650818%, 43.563843%, 87.199402%)" offset="0.0078125"/><stop stop-opacity="1" stop-color="rgb(93.553162%, 43.693542%, 87.400818%)" offset="0.015625"/><stop stop-opacity="1" stop-color="rgb(93.457031%, 43.823242%, 87.60376%)" offset="0.0234375"/><stop stop-opacity="1" stop-color="rgb(93.359375%, 43.952942%, 87.805176%)" offset="0.03125"/><stop stop-opacity="1" stop-color="rgb(93.263245%, 44.082642%, 88.006592%)" offset="0.0390625"/><stop stop-opacity="1" stop-color="rgb(93.165588%, 44.212341%, 88.208008%)" offset="0.046875"/><stop stop-opacity="1" stop-color="rgb(93.069458%, 44.342041%, 88.409424%)" offset="0.0546875"/><stop stop-opacity="1" stop-color="rgb(92.971802%, 44.471741%, 88.61084%)" offset="0.0625"/><stop stop-opacity="1" stop-color="rgb(92.875671%, 44.60144%, 88.812256%)" offset="0.0703125"/><stop stop-opacity="1" stop-color="rgb(92.778015%, 44.73114%, 89.013672%)" offset="0.078125"/><stop stop-opacity="1" stop-color="rgb(92.681885%, 44.86084%, 89.215088%)" offset="0.0859375"/><stop stop-opacity="1" stop-color="rgb(92.584229%, 44.99054%, 89.416504%)" offset="0.09375"/><stop stop-opacity="1" stop-color="rgb(92.488098%, 45.120239%, 89.619446%)" offset="0.101562"/><stop stop-opacity="1" stop-color="rgb(92.390442%, 45.249939%, 89.820862%)" offset="0.109375"/><stop stop-opacity="1" stop-color="rgb(92.294312%, 45.379639%, 90.022278%)" offset="0.117188"/><stop stop-opacity="1" stop-color="rgb(92.196655%, 45.509338%, 90.223694%)" offset="0.125"/><stop stop-opacity="1" stop-color="rgb(92.100525%, 45.639038%, 90.42511%)" offset="0.132812"/><stop stop-opacity="1" stop-color="rgb(92.002869%, 45.768738%, 90.626526%)" offset="0.140625"/><stop stop-opacity="1" stop-color="rgb(91.906738%, 45.898438%, 90.827942%)" offset="0.148437"/><stop stop-opacity="1" stop-color="rgb(91.809082%, 46.028137%, 91.029358%)" offset="0.15625"/><stop stop-opacity="1" stop-color="rgb(91.712952%, 46.156311%, 91.230774%)" offset="0.164062"/><stop stop-opacity="1" stop-color="rgb(91.615295%, 46.286011%, 91.43219%)" offset="0.171875"/><stop stop-opacity="1" stop-color="rgb(91.519165%, 46.41571%, 91.633606%)" offset="0.179687"/><stop stop-opacity="1" stop-color="rgb(91.423035%, 46.54541%, 91.836548%)" offset="0.1875"/><stop stop-opacity="1" stop-color="rgb(91.325378%, 46.67511%, 92.037964%)" offset="0.195312"/><stop stop-opacity="1" stop-color="rgb(91.229248%, 46.80481%, 92.23938%)" offset="0.203125"/><stop stop-opacity="1" stop-color="rgb(91.131592%, 46.934509%, 92.440796%)" offset="0.210938"/><stop stop-opacity="1" stop-color="rgb(91.035461%, 47.064209%, 92.642212%)" offset="0.21875"/><stop stop-opacity="1" stop-color="rgb(90.937805%, 47.193909%, 92.843628%)" offset="0.226562"/><stop stop-opacity="1" stop-color="rgb(90.841675%, 47.323608%, 93.045044%)" offset="0.234375"/><stop stop-opacity="1" stop-color="rgb(90.744019%, 47.453308%, 93.24646%)" offset="0.242188"/><stop stop-opacity="1" stop-color="rgb(90.647888%, 47.583008%, 93.447876%)" offset="0.25"/><stop stop-opacity="1" stop-color="rgb(90.550232%, 47.712708%, 93.649292%)" offset="0.257812"/><stop stop-opacity="1" stop-color="rgb(90.454102%, 47.842407%, 93.852234%)" offset="0.265625"/><stop stop-opacity="1" stop-color="rgb(90.356445%, 47.972107%, 94.05365%)" offset="0.273437"/><stop stop-opacity="1" stop-color="rgb(90.260315%, 48.101807%, 94.255066%)" offset="0.28125"/><stop stop-opacity="1" stop-color="rgb(90.162659%, 48.231506%, 94.456482%)" offset="0.289062"/><stop stop-opacity="1" stop-color="rgb(90.066528%, 48.361206%, 94.657898%)" offset="0.296875"/><stop stop-opacity="1" stop-color="rgb(89.968872%, 48.490906%, 94.859314%)" offset="0.304687"/><stop stop-opacity="1" stop-color="rgb(89.872742%, 48.620605%, 95.06073%)" offset="0.3125"/><stop stop-opacity="1" stop-color="rgb(89.775085%, 48.750305%, 95.262146%)" offset="0.320312"/><stop stop-opacity="1" stop-color="rgb(89.678955%, 48.880005%, 95.463562%)" offset="0.328125"/><stop stop-opacity="1" stop-color="rgb(89.581299%, 49.009705%, 95.664978%)" offset="0.335937"/><stop stop-opacity="1" stop-color="rgb(89.485168%, 49.139404%, 95.866394%)" offset="0.34375"/><stop stop-opacity="1" stop-color="rgb(89.387512%, 49.269104%, 96.069336%)" offset="0.351562"/><stop stop-opacity="1" stop-color="rgb(89.291382%, 49.398804%, 96.270752%)" offset="0.359375"/><stop stop-opacity="1" stop-color="rgb(89.193726%, 49.528503%, 96.472168%)" offset="0.367187"/><stop stop-opacity="1" stop-color="rgb(89.097595%, 49.658203%, 96.673584%)" offset="0.375"/><stop stop-opacity="1" stop-color="rgb(88.999939%, 49.787903%, 96.875%)" offset="0.382812"/><stop stop-opacity="1" stop-color="rgb(88.903809%, 49.917603%, 97.076416%)" offset="0.390625"/><stop stop-opacity="1" stop-color="rgb(88.806152%, 50.047302%, 97.277832%)" offset="0.398438"/><stop stop-opacity="1" stop-color="rgb(88.710022%, 50.177002%, 97.479248%)" offset="0.40625"/><stop stop-opacity="1" stop-color="rgb(88.612366%, 50.306702%, 97.680664%)" offset="0.414062"/><stop stop-opacity="1" stop-color="rgb(88.516235%, 50.436401%, 97.88208%)" offset="0.421875"/><stop stop-opacity="1" stop-color="rgb(88.418579%, 50.566101%, 98.085022%)" offset="0.429688"/><stop stop-opacity="1" stop-color="rgb(88.322449%, 50.695801%, 98.286438%)" offset="0.4375"/><stop stop-opacity="1" stop-color="rgb(88.224792%, 50.8255%, 98.487854%)" offset="0.445312"/><stop stop-opacity="1" stop-color="rgb(88.128662%, 50.9552%, 98.68927%)" offset="0.453125"/><stop stop-opacity="1" stop-color="rgb(88.031006%, 51.0849%, 98.890686%)" offset="0.460938"/><stop stop-opacity="1" stop-color="rgb(87.934875%, 51.2146%, 99.092102%)" offset="0.46875"/><stop stop-opacity="1" stop-color="rgb(87.837219%, 51.344299%, 99.293518%)" offset="0.476562"/><stop stop-opacity="1" stop-color="rgb(87.741089%, 51.473999%, 99.494934%)" offset="0.484375"/><stop stop-opacity="1" stop-color="rgb(87.643433%, 51.603699%, 99.69635%)" offset="0.492188"/><stop stop-opacity="1" stop-color="rgb(87.547302%, 51.733398%, 99.897766%)" offset="0.5"/><stop stop-opacity="1" stop-color="rgb(87.220764%, 52.0401%, 99.998474%)" offset="0.503906"/><stop stop-opacity="1" stop-color="rgb(86.941528%, 52.282715%, 100%)" offset="0.507812"/><stop stop-opacity="1" stop-color="rgb(86.662292%, 52.523804%, 100%)" offset="0.511719"/><stop stop-opacity="1" stop-color="rgb(86.383057%, 52.764893%, 100%)" offset="0.515625"/><stop stop-opacity="1" stop-color="rgb(86.103821%, 53.005981%, 100%)" offset="0.519531"/><stop stop-opacity="1" stop-color="rgb(85.826111%, 53.24707%, 100%)" offset="0.523437"/><stop stop-opacity="1" stop-color="rgb(85.546875%, 53.488159%, 100%)" offset="0.527344"/><stop stop-opacity="1" stop-color="rgb(85.267639%, 53.730774%, 100%)" offset="0.53125"/><stop stop-opacity="1" stop-color="rgb(84.988403%, 53.971863%, 100%)" offset="0.535156"/><stop stop-opacity="1" stop-color="rgb(84.710693%, 54.212952%, 100%)" offset="0.539062"/><stop stop-opacity="1" stop-color="rgb(84.431458%, 54.454041%, 100%)" offset="0.542969"/><stop stop-opacity="1" stop-color="rgb(84.152222%, 54.696655%, 100%)" offset="0.546875"/><stop stop-opacity="1" stop-color="rgb(83.872986%, 54.937744%, 100%)" offset="0.550781"/><stop stop-opacity="1" stop-color="rgb(83.595276%, 55.178833%, 100%)" offset="0.554687"/><stop stop-opacity="1" stop-color="rgb(83.31604%, 55.419922%, 100%)" offset="0.558594"/><stop stop-opacity="1" stop-color="rgb(83.036804%, 55.661011%, 100%)" offset="0.5625"/><stop stop-opacity="1" stop-color="rgb(82.757568%, 55.9021%, 100%)" offset="0.566406"/><stop stop-opacity="1" stop-color="rgb(82.478333%, 56.144714%, 100%)" offset="0.570312"/><stop stop-opacity="1" stop-color="rgb(82.199097%, 56.385803%, 100%)" offset="0.574219"/><stop stop-opacity="1" stop-color="rgb(81.921387%, 56.626892%, 100%)" offset="0.578125"/><stop stop-opacity="1" stop-color="rgb(81.642151%, 56.867981%, 100%)" offset="0.582031"/><stop stop-opacity="1" stop-color="rgb(81.362915%, 57.110596%, 100%)" offset="0.585937"/><stop stop-opacity="1" stop-color="rgb(81.083679%, 57.351685%, 100%)" offset="0.589844"/><stop stop-opacity="1" stop-color="rgb(80.805969%, 57.592773%, 100%)" offset="0.59375"/><stop stop-opacity="1" stop-color="rgb(80.526733%, 57.833862%, 100%)" offset="0.597656"/><stop stop-opacity="1" stop-color="rgb(80.247498%, 58.076477%, 100%)" offset="0.601562"/><stop stop-opacity="1" stop-color="rgb(79.968262%, 58.317566%, 100%)" offset="0.605469"/><stop stop-opacity="1" stop-color="rgb(79.690552%, 58.558655%, 100%)" offset="0.609375"/><stop stop-opacity="1" stop-color="rgb(79.411316%, 58.799744%, 100%)" offset="0.613281"/><stop stop-opacity="1" stop-color="rgb(79.13208%, 59.040833%, 100%)" offset="0.617187"/><stop stop-opacity="1" stop-color="rgb(78.852844%, 59.281921%, 100%)" offset="0.621094"/><stop stop-opacity="1" stop-color="rgb(78.573608%, 59.524536%, 100%)" offset="0.625"/><stop stop-opacity="1" stop-color="rgb(78.294373%, 59.765625%, 100%)" offset="0.628906"/><stop stop-opacity="1" stop-color="rgb(78.016663%, 60.006714%, 100%)" offset="0.632812"/><stop stop-opacity="1" stop-color="rgb(77.737427%, 60.247803%, 100%)" offset="0.636719"/><stop stop-opacity="1" stop-color="rgb(77.458191%, 60.490417%, 100%)" offset="0.640625"/><stop stop-opacity="1" stop-color="rgb(77.178955%, 60.731506%, 100%)" offset="0.644531"/><stop stop-opacity="1" stop-color="rgb(76.901245%, 60.972595%, 100%)" offset="0.648437"/><stop stop-opacity="1" stop-color="rgb(76.622009%, 61.213684%, 100%)" offset="0.652344"/><stop stop-opacity="1" stop-color="rgb(76.342773%, 61.454773%, 100%)" offset="0.65625"/><stop stop-opacity="1" stop-color="rgb(76.063538%, 61.695862%, 100%)" offset="0.660156"/><stop stop-opacity="1" stop-color="rgb(75.785828%, 61.938477%, 100%)" offset="0.664062"/><stop stop-opacity="1" stop-color="rgb(75.506592%, 62.179565%, 100%)" offset="0.667969"/><stop stop-opacity="1" stop-color="rgb(75.227356%, 62.420654%, 100%)" offset="0.671875"/><stop stop-opacity="1" stop-color="rgb(74.94812%, 62.661743%, 100%)" offset="0.675781"/><stop stop-opacity="1" stop-color="rgb(74.668884%, 62.904358%, 100%)" offset="0.679687"/><stop stop-opacity="1" stop-color="rgb(74.389648%, 63.145447%, 100%)" offset="0.683594"/><stop stop-opacity="1" stop-color="rgb(74.111938%, 63.386536%, 100%)" offset="0.6875"/><stop stop-opacity="1" stop-color="rgb(73.832703%, 63.627625%, 100%)" offset="0.691406"/><stop stop-opacity="1" stop-color="rgb(73.553467%, 63.870239%, 100%)" offset="0.695312"/><stop stop-opacity="1" stop-color="rgb(73.274231%, 64.111328%, 100%)" offset="0.699219"/><stop stop-opacity="1" stop-color="rgb(72.996521%, 64.352417%, 100%)" offset="0.703125"/><stop stop-opacity="1" stop-color="rgb(72.717285%, 64.593506%, 100%)" offset="0.707031"/><stop stop-opacity="1" stop-color="rgb(72.438049%, 64.834595%, 100%)" offset="0.710937"/><stop stop-opacity="1" stop-color="rgb(72.158813%, 65.075684%, 100%)" offset="0.714844"/><stop stop-opacity="1" stop-color="rgb(71.881104%, 65.318298%, 100%)" offset="0.71875"/><stop stop-opacity="1" stop-color="rgb(71.601868%, 65.559387%, 100%)" offset="0.722656"/><stop stop-opacity="1" stop-color="rgb(71.322632%, 65.800476%, 100%)" offset="0.726562"/><stop stop-opacity="1" stop-color="rgb(71.043396%, 66.041565%, 100%)" offset="0.730469"/><stop stop-opacity="1" stop-color="rgb(70.76416%, 66.28418%, 100%)" offset="0.734375"/><stop stop-opacity="1" stop-color="rgb(70.484924%, 66.525269%, 100%)" offset="0.738281"/><stop stop-opacity="1" stop-color="rgb(70.207214%, 66.766357%, 100%)" offset="0.742187"/><stop stop-opacity="1" stop-color="rgb(69.927979%, 67.007446%, 100%)" offset="0.746094"/><stop stop-opacity="1" stop-color="rgb(69.648743%, 67.248535%, 100%)" offset="0.75"/><stop stop-opacity="1" stop-color="rgb(69.369507%, 67.489624%, 100%)" offset="0.753906"/><stop stop-opacity="1" stop-color="rgb(69.091797%, 67.732239%, 100%)" offset="0.757812"/><stop stop-opacity="1" stop-color="rgb(68.812561%, 67.973328%, 100%)" offset="0.761719"/><stop stop-opacity="1" stop-color="rgb(68.533325%, 68.214417%, 100%)" offset="0.765625"/><stop stop-opacity="1" stop-color="rgb(68.254089%, 68.455505%, 100%)" offset="0.769531"/><stop stop-opacity="1" stop-color="rgb(67.976379%, 68.69812%, 100%)" offset="0.773438"/><stop stop-opacity="1" stop-color="rgb(67.697144%, 68.939209%, 100%)" offset="0.777344"/><stop stop-opacity="1" stop-color="rgb(67.417908%, 69.180298%, 100%)" offset="0.78125"/><stop stop-opacity="1" stop-color="rgb(67.138672%, 69.421387%, 100%)" offset="0.785156"/><stop stop-opacity="1" stop-color="rgb(66.859436%, 69.664001%, 100%)" offset="0.789062"/><stop stop-opacity="1" stop-color="rgb(66.5802%, 69.90509%, 100%)" offset="0.792969"/><stop stop-opacity="1" stop-color="rgb(66.30249%, 70.146179%, 100%)" offset="0.796875"/><stop stop-opacity="1" stop-color="rgb(66.023254%, 70.387268%, 100%)" offset="0.800781"/><stop stop-opacity="1" stop-color="rgb(65.744019%, 70.628357%, 100%)" offset="0.804688"/><stop stop-opacity="1" stop-color="rgb(65.464783%, 70.869446%, 100%)" offset="0.808594"/><stop stop-opacity="1" stop-color="rgb(65.187073%, 71.112061%, 100%)" offset="0.8125"/><stop stop-opacity="1" stop-color="rgb(64.907837%, 71.353149%, 100%)" offset="0.816406"/><stop stop-opacity="1" stop-color="rgb(64.628601%, 71.594238%, 100%)" offset="0.820312"/><stop stop-opacity="1" stop-color="rgb(64.349365%, 71.835327%, 100%)" offset="0.824219"/><stop stop-opacity="1" stop-color="rgb(64.071655%, 72.077942%, 100%)" offset="0.828125"/><stop stop-opacity="1" stop-color="rgb(63.792419%, 72.319031%, 100%)" offset="0.832031"/><stop stop-opacity="1" stop-color="rgb(63.513184%, 72.56012%, 100%)" offset="0.835938"/><stop stop-opacity="1" stop-color="rgb(63.233948%, 72.801208%, 100%)" offset="0.839844"/><stop stop-opacity="1" stop-color="rgb(62.956238%, 73.042297%, 100%)" offset="0.84375"/><stop stop-opacity="1" stop-color="rgb(62.677002%, 73.283386%, 100%)" offset="0.847656"/><stop stop-opacity="1" stop-color="rgb(62.397766%, 73.526001%, 100%)" offset="0.851562"/><stop stop-opacity="1" stop-color="rgb(62.11853%, 73.76709%, 100%)" offset="0.855469"/><stop stop-opacity="1" stop-color="rgb(61.839294%, 74.008179%, 100%)" offset="0.859375"/><stop stop-opacity="1" stop-color="rgb(61.560059%, 74.249268%, 100%)" offset="0.863281"/><stop stop-opacity="1" stop-color="rgb(61.282349%, 74.491882%, 100%)" offset="0.867188"/><stop stop-opacity="1" stop-color="rgb(61.003113%, 74.732971%, 100%)" offset="0.871094"/><stop stop-opacity="1" stop-color="rgb(60.723877%, 74.97406%, 100%)" offset="0.875"/><stop stop-opacity="1" stop-color="rgb(60.444641%, 75.215149%, 100%)" offset="0.878906"/><stop stop-opacity="1" stop-color="rgb(60.166931%, 75.457764%, 100%)" offset="0.882812"/><stop stop-opacity="1" stop-color="rgb(59.887695%, 75.698853%, 100%)" offset="0.886719"/><stop stop-opacity="1" stop-color="rgb(59.608459%, 75.939941%, 100%)" offset="0.890625"/><stop stop-opacity="1" stop-color="rgb(59.329224%, 76.18103%, 100%)" offset="0.894531"/><stop stop-opacity="1" stop-color="rgb(59.051514%, 76.422119%, 100%)" offset="0.898438"/><stop stop-opacity="1" stop-color="rgb(58.772278%, 76.663208%, 100%)" offset="0.902344"/><stop stop-opacity="1" stop-color="rgb(58.493042%, 76.905823%, 100%)" offset="0.90625"/><stop stop-opacity="1" stop-color="rgb(58.213806%, 77.146912%, 100%)" offset="0.910156"/><stop stop-opacity="1" stop-color="rgb(57.93457%, 77.388%, 100%)" offset="0.914062"/><stop stop-opacity="1" stop-color="rgb(57.655334%, 77.629089%, 100%)" offset="0.917969"/><stop stop-opacity="1" stop-color="rgb(57.377625%, 77.871704%, 100%)" offset="0.921875"/><stop stop-opacity="1" stop-color="rgb(57.098389%, 78.112793%, 100%)" offset="0.925781"/><stop stop-opacity="1" stop-color="rgb(56.819153%, 78.353882%, 100%)" offset="0.929688"/><stop stop-opacity="1" stop-color="rgb(56.539917%, 78.594971%, 100%)" offset="0.933594"/><stop stop-opacity="1" stop-color="rgb(56.262207%, 78.83606%, 100%)" offset="0.9375"/><stop stop-opacity="1" stop-color="rgb(55.982971%, 79.077148%, 100%)" offset="0.941406"/><stop stop-opacity="1" stop-color="rgb(55.703735%, 79.319763%, 100%)" offset="0.945312"/><stop stop-opacity="1" stop-color="rgb(55.4245%, 79.560852%, 100%)" offset="0.949219"/><stop stop-opacity="1" stop-color="rgb(55.14679%, 79.801941%, 100%)" offset="0.953125"/><stop stop-opacity="1" stop-color="rgb(54.867554%, 80.04303%, 100%)" offset="0.957031"/><stop stop-opacity="1" stop-color="rgb(54.588318%, 80.285645%, 100%)" offset="0.960938"/><stop stop-opacity="1" stop-color="rgb(54.309082%, 80.526733%, 100%)" offset="0.964844"/><stop stop-opacity="1" stop-color="rgb(54.029846%, 80.767822%, 100%)" offset="0.96875"/><stop stop-opacity="1" stop-color="rgb(53.75061%, 81.008911%, 100%)" offset="0.972656"/><stop stop-opacity="1" stop-color="rgb(53.4729%, 81.251526%, 100%)" offset="0.976562"/><stop stop-opacity="1" stop-color="rgb(53.193665%, 81.492615%, 100%)" offset="0.980469"/><stop stop-opacity="1" stop-color="rgb(52.914429%, 81.733704%, 100%)" offset="0.984375"/><stop stop-opacity="1" stop-color="rgb(52.635193%, 81.974792%, 100%)" offset="0.988281"/><stop stop-opacity="1" stop-color="rgb(52.357483%, 82.215881%, 100%)" offset="0.992188"/><stop stop-opacity="1" stop-color="rgb(52.078247%, 82.45697%, 100%)" offset="0.996094"/><stop stop-opacity="1" stop-color="rgb(51.799011%, 82.699585%, 100%)" offset="1"/></linearGradient><mask id="cb37190177"><g filter="url(#e879909950)"><rect x="-81" width="972" fill="#000000" y="-80.999999" height="971.999992" fill-opacity="0.58"/></g></mask><clipPath id="7ce0d435f0"><path d="M 0 0 L 810 0 L 810 549.589844 L 0 549.589844 Z M 0 0 " clip-rule="nonzero"/></clipPath><clipPath id="16886aeb4b"><path d="M 0 504 L 810 504 L 810 506 L 0 506 Z M 0 504 " clip-rule="nonzero"/></clipPath><clipPath id="50b6fd6964"><path d="M 0 427 L 810 427 L 810 429 L 0 429 Z M 0 427 " clip-rule="nonzero"/></clipPath><clipPath id="aa0ff2e02b"><path d="M 0 350 L 810 350 L 810 352 L 0 352 Z M 0 350 " clip-rule="nonzero"/></clipPath><clipPath id="7fb073fc82"><path d="M 0 274 L 810 274 L 810 276 L 0 276 Z M 0 274 " clip-rule="nonzero"/></clipPath><clipPath id="09eca27ad7"><path d="M 0 197 L 810 197 L 810 199 L 0 199 Z M 0 197 " clip-rule="nonzero"/></clipPath><clipPath id="1fcf4f041d"><path d="M 0 120 L 810 120 L 810 122 L 0 122 Z M 0 120 " clip-rule="nonzero"/></clipPath><clipPath id="3f9239c4fd"><path d="M 0 43 L 810 43 L 810 46 L 0 46 Z M 0 43 " clip-rule="nonzero"/></clipPath><clipPath id="d2c17d9cc5"><path d="M 732 0 L 734 0 L 734 549.589844 L 732 549.589844 Z M 732 0 " clip-rule="nonzero"/></clipPath><clipPath id="77e7cbac32"><path d="M 655 0 L 657 0 L 657 549.589844 L 655 549.589844 Z M 655 0 " clip-rule="nonzero"/></clipPath><clipPath id="b1f7094abe"><path d="M 578 0 L 580 0 L 580 549.589844 L 578 549.589844 Z M 578 0 " clip-rule="nonzero"/></clipPath><clipPath id="b152427f48"><path d="M 501 0 L 504 0 L 504 549.589844 L 501 549.589844 Z M 501 0 " clip-rule="nonzero"/></clipPath><clipPath id="21a29dcfd5"><path d="M 425 0 L 427 0 L 427 549.589844 L 425 549.589844 Z M 425 0 " clip-rule="nonzero"/></clipPath><clipPath id="0eeffaa474"><path d="M 348 0 L 350 0 L 350 549.589844 L 348 549.589844 Z M 348 0 " clip-rule="nonzero"/></clipPath><clipPath id="78e3f731ec"><path d="M 271 0 L 273 0 L 273 549.589844 L 271 549.589844 Z M 271 0 " clip-rule="nonzero"/></clipPath><clipPath id="6d1bf62448"><path d="M 195 0 L 197 0 L 197 549.589844 L 195 549.589844 Z M 195 0 " clip-rule="nonzero"/></clipPath><clipPath id="52f6ce81dc"><path d="M 118 0 L 120 0 L 120 549.589844 L 118 549.589844 Z M 118 0 " clip-rule="nonzero"/></clipPath><clipPath id="6c8265fce6"><path d="M 41 0 L 43 0 L 43 549.589844 L 41 549.589844 Z M 41 0 " clip-rule="nonzero"/></clipPath><clipPath id="f6d6fb2f2f"><rect x="0" width="810" y="0" height="737"/></clipPath><clipPath id="f16a05ca6c"><path d="M 160.816406 148 L 333.316406 148 L 333.316406 322.648438 L 160.816406 322.648438 Z M 160.816406 148 " clip-rule="nonzero"/></clipPath><clipPath id="0bfb414c5b"><path d="M 184 127.648438 L 199 127.648438 L 199 141 L 184 141 Z M 184 127.648438 " clip-rule="nonzero"/></clipPath><clipPath id="29c2dfec2e"><path d="M 557.828125 168.332031 L 648.578125 168.332031 L 648.578125 281.582031 L 557.828125 281.582031 Z M 557.828125 168.332031 " clip-rule="nonzero"/></clipPath><clipPath id="05c4b51ec1"><path d="M 603.378906 352.621094 L 680.628906 352.621094 L 680.628906 429.871094 L 603.378906 429.871094 Z M 603.378906 352.621094 " clip-rule="nonzero"/></clipPath><clipPath id="9dbeca01f7"><path d="M 148.90625 391.101562 L 208.15625 391.101562 L 208.15625 450.351562 L 148.90625 450.351562 Z M 148.90625 391.101562 " clip-rule="nonzero"/></clipPath><mask id="55b2142e81"><g filter="url(#e879909950)"><rect x="-81" width="972" fill="#000000" y="-80.999999" height="971.999992" fill-opacity="0.58"/></g></mask><clipPath id="6667378be7"><path d="M 0 1.621094 L 810 1.621094 L 810 459 L 0 459 Z M 0 1.621094 " clip-rule="nonzero"/></clipPath><clipPath id="2d0f67b3ab"><path d="M 0 385 L 810 385 L 810 387 L 0 387 Z M 0 385 " clip-rule="nonzero"/></clipPath><clipPath id="038f34309a"><path d="M 0 308 L 810 308 L 810 310 L 0 310 Z M 0 308 " clip-rule="nonzero"/></clipPath><clipPath id="3642b3ea34"><path d="M 0 231 L 810 231 L 810 234 L 0 234 Z M 0 231 " clip-rule="nonzero"/></clipPath><clipPath id="d59d05dbb4"><path d="M 0 155 L 810 155 L 810 157 L 0 157 Z M 0 155 " clip-rule="nonzero"/></clipPath><clipPath id="9070fea8cf"><path d="M 0 78 L 810 78 L 810 80 L 0 80 Z M 0 78 " clip-rule="nonzero"/></clipPath><clipPath id="ab1a179c0b"><path d="M 732 2 L 734 2 L 734 459 L 732 459 Z M 732 2 " clip-rule="nonzero"/></clipPath><clipPath id="891ff36236"><path d="M 655 2 L 657 2 L 657 459 L 655 459 Z M 655 2 " clip-rule="nonzero"/></clipPath><clipPath id="897a79e04e"><path d="M 578 2 L 580 2 L 580 459 L 578 459 Z M 578 2 " clip-rule="nonzero"/></clipPath><clipPath id="47203e4dc8"><path d="M 501 2 L 504 2 L 504 459 L 501 459 Z M 501 2 " clip-rule="nonzero"/></clipPath><clipPath id="7376559846"><path d="M 425 2 L 427 2 L 427 459 L 425 459 Z M 425 2 " clip-rule="nonzero"/></clipPath><clipPath id="de6ef35394"><path d="M 348 2 L 350 2 L 350 459 L 348 459 Z M 348 2 " clip-rule="nonzero"/></clipPath><clipPath id="77b74105f6"><path d="M 271 2 L 273 2 L 273 459 L 271 459 Z M 271 2 " clip-rule="nonzero"/></clipPath><clipPath id="098ec9c443"><path d="M 195 2 L 197 2 L 197 459 L 195 459 Z M 195 2 " clip-rule="nonzero"/></clipPath><clipPath id="d6c98790e3"><path d="M 118 2 L 120 2 L 120 459 L 118 459 Z M 118 2 " clip-rule="nonzero"/></clipPath><clipPath id="c397f8e889"><path d="M 41 2 L 43 2 L 43 459 L 41 459 Z M 41 2 " clip-rule="nonzero"/></clipPath><clipPath id="f524b5e385"><rect x="0" width="810" y="0" height="459"/></clipPath><clipPath id="56a4f0df62"><path d="M 125.214844 352.621094 L 172.464844 352.621094 L 172.464844 399.871094 L 125.214844 399.871094 Z M 125.214844 352.621094 " clip-rule="nonzero"/></clipPath><clipPath id="ace783e835"><path d="M 152 139 L 661.15625 139 L 661.15625 681 L 152 681 Z M 152 139 " clip-rule="nonzero"/></clipPath></defs><rect x="-81" width="972" fill="#ffffff" y="-80.999999" height="971.999992" fill-opacity="1"/><rect x="-81" fill="url(#88be4bf8e0)" width="972" y="-80.999999" height="971.999992"/><g mask="url(#cb37190177)"><g transform="matrix(1, 0, 0, 1, 0, 0.000000000000039746)"><g clip-path="url(#f6d6fb2f2f)"><g clip-path="url(#7ce0d435f0)"><path fill="#ffffff" d="M 810.03125 735.605469 L -35.195312 735.605469 L -35.195312 -109.621094 L 810.03125 -109.621094 Z M -34.023438 734.433594 L 808.859375 734.433594 L 808.859375 -108.449219 L -34.023438 -108.449219 Z M -34.023438 734.433594 " fill-opacity="1" fill-rule="nonzero"/></g><g clip-path="url(#16886aeb4b)"><path fill="#ffffff" d="M -34.609375 504.234375 L 809.445312 504.234375 L 809.445312 505.40625 L -34.609375 505.40625 Z M -34.609375 504.234375 " fill-opacity="1" fill-rule="nonzero"/></g><g clip-path="url(#50b6fd6964)"><path fill="#ffffff" d="M -34.609375 427.503906 L 809.445312 427.503906 L 809.445312 428.675781 L -34.609375 428.675781 Z M -34.609375 427.503906 " fill-opacity="1" fill-rule="nonzero"/></g><g clip-path="url(#aa0ff2e02b)"><path fill="#ffffff" d="M -34.609375 350.773438 L 809.445312 350.773438 L 809.445312 351.945312 L -34.609375 351.945312 Z M -34.609375 350.773438 " fill-opacity="1" fill-rule="nonzero"/></g><g clip-path="url(#7fb073fc82)"><path fill="#ffffff" d="M -34.609375 274.039062 L 809.445312 274.039062 L 809.445312 275.214844 L -34.609375 275.214844 Z M -34.609375 274.039062 " fill-opacity="1" fill-rule="nonzero"/></g><g clip-path="url(#09eca27ad7)"><path fill="#ffffff" d="M -34.609375 197.308594 L 809.445312 197.308594 L 809.445312 198.480469 L -34.609375 198.480469 Z M -34.609375 197.308594 " fill-opacity="1" fill-rule="nonzero"/></g><g clip-path="url(#1fcf4f041d)"><path fill="#ffffff" d="M -34.609375 120.578125 L 809.445312 120.578125 L 809.445312 121.75 L -34.609375 121.75 Z M -34.609375 120.578125 " fill-opacity="1" fill-rule="nonzero"/></g><g clip-path="url(#3f9239c4fd)"><path fill="#ffffff" d="M -34.609375 43.839844 L 809.445312 43.839844 L 809.445312 45.011719 L -34.609375 45.011719 Z M -34.609375 43.839844 " fill-opacity="1" fill-rule="nonzero"/></g><g clip-path="url(#d2c17d9cc5)"><path fill="#ffffff" d="M 732.128906 -109.035156 L 733.300781 -109.035156 L 733.300781 735.019531 L 732.128906 735.019531 Z M 732.128906 -109.035156 " fill-opacity="1" fill-rule="nonzero"/></g><g clip-path="url(#77e7cbac32)"><path fill="#ffffff" d="M 655.398438 -109.035156 L 656.570312 -109.035156 L 656.570312 735.019531 L 655.398438 735.019531 Z M 655.398438 -109.035156 " fill-opacity="1" fill-rule="nonzero"/></g><g clip-path="url(#b1f7094abe)"><path fill="#ffffff" d="M 578.660156 -109.035156 L 579.832031 -109.035156 L 579.832031 735.019531 L 578.660156 735.019531 Z M 578.660156 -109.035156 " fill-opacity="1" fill-rule="nonzero"/></g><g clip-path="url(#b152427f48)"><path fill="#ffffff" d="M 501.929688 -109.035156 L 503.101562 -109.035156 L 503.101562 735.019531 L 501.929688 735.019531 Z M 501.929688 -109.035156 " fill-opacity="1" fill-rule="nonzero"/></g><g clip-path="url(#21a29dcfd5)"><path fill="#ffffff" d="M 425.199219 -109.035156 L 426.371094 -109.035156 L 426.371094 735.019531 L 425.199219 735.019531 Z M 425.199219 -109.035156 " fill-opacity="1" fill-rule="nonzero"/></g><g clip-path="url(#0eeffaa474)"><path fill="#ffffff" d="M 348.46875 -109.035156 L 349.640625 -109.035156 L 349.640625 735.019531 L 348.46875 735.019531 Z M 348.46875 -109.035156 " fill-opacity="1" fill-rule="nonzero"/></g><g clip-path="url(#78e3f731ec)"><path fill="#ffffff" d="M 271.734375 -109.035156 L 272.910156 -109.035156 L 272.910156 735.019531 L 271.734375 735.019531 Z M 271.734375 -109.035156 " fill-opacity="1" fill-rule="nonzero"/></g><g clip-path="url(#6d1bf62448)"><path fill="#ffffff" d="M 195.003906 -109.035156 L 196.175781 -109.035156 L 196.175781 735.019531 L 195.003906 735.019531 Z M 195.003906 -109.035156 " fill-opacity="1" fill-rule="nonzero"/></g><g clip-path="url(#52f6ce81dc)"><path fill="#ffffff" d="M 118.265625 -109.035156 L 119.4375 -109.035156 L 119.4375 735.019531 L 118.265625 735.019531 Z M 118.265625 -109.035156 " fill-opacity="1" fill-rule="nonzero"/></g><g clip-path="url(#6c8265fce6)"><path fill="#ffffff" d="M 41.535156 -109.035156 L 42.707031 -109.035156 L 42.707031 735.019531 L 41.535156 735.019531 Z M 41.535156 -109.035156 " fill-opacity="1" fill-rule="nonzero"/></g></g></g></g><g clip-path="url(#f16a05ca6c)"><path fill="#f3eff9" d="M 232.503906 148.078125 C 215.277344 161.789062 204.226562 182.9375 204.226562 206.640625 C 204.226562 247.933594 237.75 281.457031 279.042969 281.457031 C 300.324219 281.457031 319.542969 272.550781 333.171875 258.265625 C 322.773438 295.160156 288.839844 322.234375 248.636719 322.234375 C 200.167969 322.234375 160.816406 282.882812 160.816406 234.414062 C 160.816406 191.457031 191.726562 155.664062 232.503906 148.078125 Z M 232.503906 148.078125 " fill-opacity="1" fill-rule="evenodd"/></g><path fill="#ffffff" d="M 262.359375 152.613281 C 262.472656 152.425781 262.675781 152.3125 262.894531 152.3125 C 263.113281 152.3125 263.316406 152.425781 263.429688 152.613281 L 267.410156 159.121094 L 274.832031 160.898438 C 275.046875 160.949219 275.214844 161.105469 275.285156 161.316406 C 275.351562 161.523438 275.304688 161.75 275.164062 161.917969 L 270.203125 167.714844 L 270.808594 175.324219 C 270.824219 175.539062 270.726562 175.75 270.550781 175.878906 C 270.375 176.007812 270.144531 176.035156 269.941406 175.949219 L 262.894531 173.027344 L 255.847656 175.949219 C 255.644531 176.035156 255.414062 176.007812 255.238281 175.878906 C 255.0625 175.75 254.964844 175.539062 254.980469 175.324219 L 255.585938 167.714844 L 250.625 161.917969 C 250.484375 161.75 250.4375 161.523438 250.503906 161.316406 C 250.574219 161.105469 250.742188 160.949219 250.957031 160.898438 L 258.375 159.121094 Z M 262.359375 152.613281 " fill-opacity="1" fill-rule="evenodd"/><path fill="#ffffff" d="M 294.515625 204.367188 C 294.578125 204.265625 294.6875 204.207031 294.804688 204.207031 C 294.921875 204.207031 295.03125 204.265625 295.09375 204.367188 L 297.246094 207.882812 L 301.25 208.839844 C 301.367188 208.867188 301.457031 208.953125 301.496094 209.066406 C 301.53125 209.179688 301.507812 209.300781 301.429688 209.390625 L 298.753906 212.519531 L 299.078125 216.628906 C 299.085938 216.746094 299.035156 216.859375 298.941406 216.929688 C 298.84375 216.996094 298.71875 217.011719 298.609375 216.96875 L 294.804688 215.386719 L 291 216.96875 C 290.890625 217.011719 290.765625 216.996094 290.671875 216.929688 C 290.578125 216.859375 290.523438 216.746094 290.535156 216.628906 L 290.859375 212.519531 L 288.183594 209.390625 C 288.105469 209.300781 288.082031 209.179688 288.117188 209.066406 C 288.152344 208.953125 288.246094 208.867188 288.359375 208.839844 L 292.367188 207.882812 Z M 294.515625 204.367188 " fill-opacity="1" fill-rule="evenodd"/><path fill="#ffffff" d="M 317.804688 164 L 314.96875 168.636719 C 314.96875 168.636719 309.683594 169.902344 309.683594 169.902344 C 309.277344 170 308.949219 170.300781 308.820312 170.699219 C 308.691406 171.09375 308.78125 171.53125 309.050781 171.847656 C 309.050781 171.847656 312.582031 175.976562 312.582031 175.976562 C 312.582031 175.976562 312.152344 181.394531 312.152344 181.394531 C 312.121094 181.808594 312.304688 182.214844 312.644531 182.457031 C 312.980469 182.703125 313.421875 182.757812 313.808594 182.597656 C 313.808594 182.597656 318.828125 180.511719 318.828125 180.511719 C 318.828125 180.511719 323.84375 182.597656 323.84375 182.597656 C 324.230469 182.757812 324.671875 182.703125 325.007812 182.457031 C 325.347656 182.214844 325.53125 181.808594 325.5 181.394531 C 325.5 181.394531 325.070312 175.976562 325.070312 175.976562 C 325.070312 175.976562 328.601562 171.847656 328.601562 171.847656 C 328.875 171.53125 328.960938 171.09375 328.832031 170.699219 C 328.703125 170.300781 328.375 170 327.96875 169.902344 C 327.96875 169.902344 322.683594 168.636719 322.683594 168.636719 C 322.683594 168.636719 319.847656 164 319.847656 164 C 319.632812 163.644531 319.242188 163.429688 318.828125 163.429688 C 318.410156 163.429688 318.023438 163.644531 317.804688 164 Z M 318.828125 165.117188 L 321.601562 169.652344 C 321.703125 169.820312 321.863281 169.9375 322.054688 169.980469 L 327.222656 171.21875 L 323.769531 175.261719 C 323.640625 175.40625 323.582031 175.597656 323.597656 175.792969 L 324.015625 181.09375 L 319.105469 179.054688 C 318.925781 178.980469 318.726562 178.980469 318.546875 179.054688 L 313.636719 181.09375 L 314.058594 175.792969 C 314.074219 175.597656 314.011719 175.40625 313.886719 175.261719 L 310.429688 171.21875 L 315.601562 169.980469 C 315.789062 169.9375 315.949219 169.820312 316.050781 169.652344 Z M 318.828125 165.117188 " fill-opacity="1" fill-rule="evenodd"/><g clip-path="url(#0bfb414c5b)"><path fill="#ffffff" d="M 190.929688 128.253906 L 189.132812 131.191406 C 189.132812 131.191406 185.78125 131.996094 185.78125 131.996094 C 185.433594 132.078125 185.152344 132.339844 185.039062 132.679688 C 184.929688 133.023438 185.003906 133.398438 185.238281 133.675781 C 185.238281 133.675781 187.476562 136.289062 187.476562 136.289062 C 187.476562 136.289062 187.203125 139.722656 187.203125 139.722656 C 187.175781 140.082031 187.335938 140.429688 187.625 140.644531 C 187.917969 140.855469 188.296875 140.898438 188.632812 140.761719 C 188.632812 140.761719 191.8125 139.441406 191.8125 139.441406 C 191.8125 139.441406 194.992188 140.761719 194.992188 140.761719 C 195.324219 140.898438 195.707031 140.855469 195.996094 140.644531 C 196.289062 140.429688 196.449219 140.082031 196.421875 139.722656 C 196.421875 139.722656 196.148438 136.289062 196.148438 136.289062 C 196.148438 136.289062 198.386719 133.675781 198.386719 133.675781 C 198.621094 133.398438 198.695312 133.023438 198.585938 132.679688 C 198.472656 132.339844 198.191406 132.078125 197.839844 131.996094 C 197.839844 131.996094 194.492188 131.191406 194.492188 131.191406 C 194.492188 131.191406 192.695312 128.253906 192.695312 128.253906 C 192.507812 127.949219 192.171875 127.761719 191.8125 127.761719 C 191.453125 127.761719 191.117188 127.949219 190.929688 128.253906 Z M 191.8125 129.601562 L 193.410156 132.210938 C 193.511719 132.375 193.671875 132.492188 193.859375 132.539062 L 196.835938 133.25 L 194.847656 135.574219 C 194.722656 135.722656 194.660156 135.914062 194.675781 136.105469 L 194.917969 139.15625 L 192.089844 137.980469 C 191.914062 137.90625 191.710938 137.90625 191.535156 137.980469 L 188.707031 139.15625 L 188.949219 136.105469 C 188.964844 135.914062 188.902344 135.722656 188.777344 135.574219 L 186.789062 133.25 L 189.765625 132.539062 C 189.953125 132.492188 190.113281 132.375 190.214844 132.210938 Z M 191.8125 129.601562 " fill-opacity="1" fill-rule="evenodd"/></g><g clip-path="url(#29c2dfec2e)"><path fill="#ffffff" d="M 600.242188 281.34375 L 599.589844 281.34375 C 599.589844 242.222656 593.265625 239.378906 557.746094 239.378906 L 557.746094 238.726562 C 593.265625 238.726562 599.589844 235.882812 599.589844 196.769531 L 600.242188 196.769531 C 600.242188 235.882812 606.5625 238.726562 642.078125 238.726562 L 642.078125 239.378906 C 606.5625 239.378906 600.242188 242.222656 600.242188 281.34375 Z M 639.164062 228.09375 L 639.019531 228.09375 C 639.019531 219.335938 637.597656 218.695312 629.648438 218.695312 L 629.648438 218.550781 C 637.597656 218.550781 639.019531 217.910156 639.019531 209.152344 L 639.164062 209.152344 C 639.164062 217.910156 640.578125 218.550781 648.527344 218.550781 L 648.527344 218.695312 C 640.578125 218.695312 639.164062 219.335938 639.164062 228.09375 Z M 621.042969 206.332031 L 620.757812 206.332031 C 620.757812 188.945312 617.945312 187.683594 602.164062 187.683594 L 602.164062 187.390625 C 617.945312 187.390625 620.757812 186.128906 620.757812 168.75 L 621.042969 168.75 C 621.042969 186.128906 623.855469 187.390625 639.636719 187.390625 L 639.636719 187.683594 C 623.855469 187.683594 621.042969 188.945312 621.042969 206.332031 " fill-opacity="1" fill-rule="evenodd"/></g><g clip-path="url(#05c4b51ec1)"><path fill="#ffffff" d="M 641.855469 352.621094 C 638.105469 384.308594 635.066406 387.347656 603.378906 391.097656 C 603.445312 391.105469 603.507812 391.113281 603.574219 391.121094 C 635.078125 394.859375 638.113281 397.953125 641.855469 429.578125 C 645.605469 397.886719 648.648438 394.847656 680.335938 391.097656 C 648.648438 387.347656 645.605469 384.308594 641.855469 352.621094 Z M 641.855469 352.621094 " fill-opacity="1" fill-rule="nonzero"/></g><g clip-path="url(#9dbeca01f7)"><path fill="#ffffff" d="M 178.59375 391.101562 C 175.699219 415.550781 173.355469 417.894531 148.90625 420.789062 C 148.957031 420.796875 149.003906 420.800781 149.054688 420.808594 L 149.058594 420.808594 C 173.363281 423.695312 175.707031 426.082031 178.59375 450.480469 C 181.488281 426.027344 183.832031 423.683594 208.285156 420.789062 C 183.832031 417.894531 181.488281 415.550781 178.59375 391.101562 Z M 178.59375 391.101562 " fill-opacity="1" fill-rule="nonzero"/></g><g mask="url(#55b2142e81)"><g transform="matrix(1, 0, 0, 1, 0, 351)"><g clip-path="url(#f524b5e385)"><g clip-path="url(#6667378be7)"><path fill="#ffffff" d="M 810.03125 846.886719 L -35.195312 846.886719 L -35.195312 1.660156 L 810.03125 1.660156 Z M -34.023438 845.710938 L 808.859375 845.710938 L 808.859375 2.832031 L -34.023438 2.832031 Z M -34.023438 845.710938 " fill-opacity="1" fill-rule="nonzero"/></g><g clip-path="url(#2d0f67b3ab)"><path fill="#ffffff" d="M -34.609375 385.320312 L 809.445312 385.320312 L 809.445312 386.492188 L -34.609375 386.492188 Z M -34.609375 385.320312 " fill-opacity="1" fill-rule="nonzero"/></g><g clip-path="url(#038f34309a)"><path fill="#ffffff" d="M -34.609375 308.589844 L 809.445312 308.589844 L 809.445312 309.761719 L -34.609375 309.761719 Z M -34.609375 308.589844 " fill-opacity="1" fill-rule="nonzero"/></g><g clip-path="url(#3642b3ea34)"><path fill="#ffffff" d="M -34.609375 231.859375 L 809.445312 231.859375 L 809.445312 233.03125 L -34.609375 233.03125 Z M -34.609375 231.859375 " fill-opacity="1" fill-rule="nonzero"/></g><g clip-path="url(#d59d05dbb4)"><path fill="#ffffff" d="M -34.609375 155.121094 L 809.445312 155.121094 L 809.445312 156.292969 L -34.609375 156.292969 Z M -34.609375 155.121094 " fill-opacity="1" fill-rule="nonzero"/></g><g clip-path="url(#9070fea8cf)"><path fill="#ffffff" d="M -34.609375 78.390625 L 809.445312 78.390625 L 809.445312 79.5625 L -34.609375 79.5625 Z M -34.609375 78.390625 " fill-opacity="1" fill-rule="nonzero"/></g><g clip-path="url(#ab1a179c0b)"><path fill="#ffffff" d="M 732.128906 2.246094 L 733.300781 2.246094 L 733.300781 846.300781 L 732.128906 846.300781 Z M 732.128906 2.246094 " fill-opacity="1" fill-rule="nonzero"/></g><g clip-path="url(#891ff36236)"><path fill="#ffffff" d="M 655.398438 2.246094 L 656.570312 2.246094 L 656.570312 846.300781 L 655.398438 846.300781 Z M 655.398438 2.246094 " fill-opacity="1" fill-rule="nonzero"/></g><g clip-path="url(#897a79e04e)"><path fill="#ffffff" d="M 578.660156 2.246094 L 579.832031 2.246094 L 579.832031 846.300781 L 578.660156 846.300781 Z M 578.660156 2.246094 " fill-opacity="1" fill-rule="nonzero"/></g><g clip-path="url(#47203e4dc8)"><path fill="#ffffff" d="M 501.929688 2.246094 L 503.101562 2.246094 L 503.101562 846.300781 L 501.929688 846.300781 Z M 501.929688 2.246094 " fill-opacity="1" fill-rule="nonzero"/></g><g clip-path="url(#7376559846)"><path fill="#ffffff" d="M 425.199219 2.246094 L 426.371094 2.246094 L 426.371094 846.300781 L 425.199219 846.300781 Z M 425.199219 2.246094 " fill-opacity="1" fill-rule="nonzero"/></g><g clip-path="url(#de6ef35394)"><path fill="#ffffff" d="M 348.46875 2.246094 L 349.640625 2.246094 L 349.640625 846.300781 L 348.46875 846.300781 Z M 348.46875 2.246094 " fill-opacity="1" fill-rule="nonzero"/></g><g clip-path="url(#77b74105f6)"><path fill="#ffffff" d="M 271.734375 2.246094 L 272.910156 2.246094 L 272.910156 846.300781 L 271.734375 846.300781 Z M 271.734375 2.246094 " fill-opacity="1" fill-rule="nonzero"/></g><g clip-path="url(#098ec9c443)"><path fill="#ffffff" d="M 195.003906 2.246094 L 196.175781 2.246094 L 196.175781 846.300781 L 195.003906 846.300781 Z M 195.003906 2.246094 " fill-opacity="1" fill-rule="nonzero"/></g><g clip-path="url(#d6c98790e3)"><path fill="#ffffff" d="M 118.265625 2.246094 L 119.4375 2.246094 L 119.4375 846.300781 L 118.265625 846.300781 Z M 118.265625 2.246094 " fill-opacity="1" fill-rule="nonzero"/></g><g clip-path="url(#c397f8e889)"><path fill="#ffffff" d="M 41.535156 2.246094 L 42.707031 2.246094 L 42.707031 846.300781 L 41.535156 846.300781 Z M 41.535156 2.246094 " fill-opacity="1" fill-rule="nonzero"/></g></g></g></g><g clip-path="url(#56a4f0df62)"><path fill="#ffffff" d="M 148.902344 352.621094 C 146.59375 372.128906 144.722656 374 125.214844 376.308594 C 125.253906 376.3125 125.292969 376.320312 125.335938 376.324219 C 144.730469 378.625 146.597656 380.53125 148.902344 400 C 151.210938 380.488281 153.082031 378.617188 172.59375 376.308594 C 153.082031 374 151.210938 372.128906 148.902344 352.621094 Z M 148.902344 352.621094 " fill-opacity="1" fill-rule="nonzero"/></g><path fill="#110c0e" d="M 610.308594 535.664062 C 618.105469 545.949219 623.519531 546.058594 632.394531 551.796875 C 641.273438 557.535156 654.695312 577.5625 656.210938 588.171875 L 660 584.707031 C 660 584.707031 655.128906 566.519531 646.792969 558.398438 C 638.457031 550.28125 628.28125 541.945312 620.917969 536.964844 C 614.421875 532.632812 605.328125 516.613281 601.867188 503.078125 C 608.902344 472.550781 579.78125 453.496094 567.980469 437.148438 C 567.871094 437.039062 567.761719 436.824219 567.65625 436.714844 C 568.628906 433.144531 570.253906 424.15625 567.4375 408.351562 C 564.625 392.328125 557.371094 372.84375 552.824219 364.074219 C 560.183594 342.636719 554.664062 324.773438 542.214844 306.695312 C 528.25 286.234375 525.976562 278.765625 533.554688 252.238281 C 541.132812 225.824219 536.585938 196.703125 520.671875 189.882812 C 520.671875 189.882812 507.789062 178.839844 478.773438 160.328125 C 449.761719 141.816406 377.660156 125.792969 331.539062 164.332031 C 285.527344 202.875 299.496094 274.433594 276.003906 304.421875 C 255.214844 330.945312 248.503906 351.949219 251.644531 370.570312 C 251.644531 370.570312 241.46875 395.359375 236.59375 418.636719 C 233.347656 434.660156 233.78125 448.515625 237.460938 455.554688 C 216.890625 471.574219 180.191406 504.160156 176.945312 548.65625 C 174.453125 582.324219 148.90625 589.039062 154.96875 619.351562 C 154.96875 619.351562 246.339844 672.398438 382.746094 679.109375 C 519.15625 685.824219 615.179688 641.542969 654.15625 591.203125 C 631.527344 549.847656 588.332031 547.574219 599.699219 509.898438 C 601.324219 517.152344 604.679688 528.414062 610.308594 535.664062 Z M 242.441406 450.789062 C 241.25 448.625 240.058594 444.617188 240.492188 437.796875 C 241.035156 428.378906 246.664062 398.066406 254.132812 380.203125 C 259.328125 399.367188 257.707031 433.144531 242.441406 450.789062 Z M 548.816406 373.601562 C 550.117188 376.089844 552.714844 382.152344 557.261719 396.550781 C 563.109375 415.0625 564.40625 424.589844 563 430.542969 C 551.523438 414.523438 539.183594 395.359375 548.816406 373.601562 Z M 548.816406 373.601562 " fill-opacity="1" fill-rule="nonzero"/><path fill="#d495ff" d="M 646.683594 558.398438 C 638.347656 550.28125 628.171875 541.945312 620.8125 536.964844 C 614.316406 532.632812 605.222656 516.613281 601.757812 503.078125 C 608.792969 472.550781 579.671875 453.496094 567.871094 437.148438 C 567.761719 437.039062 567.65625 436.824219 567.546875 436.714844 C 568.519531 433.144531 570.144531 424.15625 567.332031 408.351562 C 564.515625 392.328125 557.261719 372.84375 552.714844 364.074219 C 560.078125 342.636719 554.554688 324.773438 542.105469 306.695312 C 528.140625 286.234375 525.867188 278.765625 533.445312 252.238281 C 541.023438 225.824219 536.476562 196.703125 520.5625 189.882812 C 520.5625 189.882812 507.679688 178.839844 478.664062 160.328125 C 460.152344 148.527344 423.992188 137.699219 388.269531 141.488281 C 428.867188 145.496094 455.390625 163.683594 455.390625 163.683594 C 447.917969 166.171875 440.992188 170.613281 440.992188 170.613281 C 440.992188 170.613281 469.464844 166.605469 485.59375 179.921875 C 495.335938 187.824219 502.265625 198.21875 505.40625 210.992188 C 504.972656 212.183594 504.648438 213.375 504.214844 214.566406 C 503.347656 217.378906 502.375 220.195312 500.425781 222.359375 C 498.585938 224.632812 495.554688 226.042969 492.738281 225.285156 C 491.332031 224.851562 490.140625 223.984375 488.839844 223.441406 C 485.808594 222.253906 482.019531 223.117188 479.964844 225.609375 C 478.449219 227.339844 477.472656 229.832031 475.199219 230.371094 C 473.792969 230.695312 472.277344 229.9375 470.980469 229.398438 C 467.839844 228.097656 464.484375 227.558594 461.128906 227.882812 C 459.503906 227.988281 457.878906 228.316406 456.363281 227.664062 C 454.523438 226.800781 453.550781 224.632812 453.222656 222.578125 C 452.898438 220.519531 453.65625 217.707031 452.898438 215.757812 C 447.378906 227.015625 444.238281 261.226562 444.238281 261.226562 C 452.035156 253.324219 459.285156 243.363281 463.183594 232.96875 C 465.023438 240.113281 466.433594 247.691406 465.890625 255.054688 C 473.359375 246.828125 480.832031 236.324219 485.378906 226.257812 C 487.976562 232.96875 489.167969 240.765625 487 247.691406 C 487.757812 245.851562 490.574219 243.6875 492.523438 243.039062 C 494.472656 242.386719 496.527344 242.171875 498.261719 241.089844 C 500.535156 239.574219 501.941406 236.542969 504.648438 236.324219 C 505.296875 236.324219 505.945312 236.324219 506.488281 236.324219 C 506.378906 237.515625 506.164062 238.707031 505.945312 239.898438 C 505.945312 239.898438 504.324219 295.4375 512.117188 308.753906 C 519.914062 322.066406 538.75 348.160156 534.417969 392.4375 C 530.089844 436.824219 568.519531 464.648438 580.539062 477.207031 C 590.171875 487.273438 598.183594 497.992188 599.375 511.414062 C 599.484375 510.875 599.699219 510.332031 599.808594 509.898438 C 601.433594 517.152344 604.789062 528.414062 610.308594 535.664062 C 618.105469 545.949219 623.519531 546.058594 632.394531 551.796875 C 641.273438 557.535156 654.695312 577.5625 656.210938 588.171875 L 660 584.707031 C 659.894531 584.707031 655.019531 566.519531 646.683594 558.398438 Z M 563.109375 430.542969 C 551.632812 414.628906 539.183594 395.359375 548.925781 373.601562 C 550.226562 376.089844 552.824219 382.152344 557.371094 396.550781 C 563.214844 414.957031 564.515625 424.589844 563.109375 430.542969 Z M 578.15625 559.699219 C 579.671875 565.546875 582.269531 574.421875 585.410156 584.707031 C 585.410156 584.707031 573.5 594.019531 557.585938 597.808594 C 557.585938 597.808594 550.550781 612.855469 544.054688 617.402344 C 544.054688 617.402344 546.976562 651.613281 544.921875 659.949219 C 544.921875 659.949219 480.832031 684.632812 386.425781 679.21875 C 378.523438 654.101562 334.136719 622.058594 328.726562 579.292969 C 328.726562 579.292969 319.738281 617.726562 311.402344 639.269531 C 282.496094 646.742188 242.550781 624.4375 242.550781 624.4375 C 249.585938 594.234375 259.003906 553.636719 264.851562 525.8125 C 275.242188 476.230469 304.042969 451.65625 319.304688 451.222656 C 336.085938 448.734375 380.039062 489.980469 415.984375 448.40625 C 422.261719 441.15625 426.917969 431.953125 430.488281 421.449219 L 445.539062 423.183594 C 445.96875 427.40625 446.730469 430.652344 447.488281 432.492188 C 450.519531 439.421875 466.105469 449.707031 485.808594 453.605469 C 505.515625 457.5 523.484375 451.546875 537.777344 463.023438 C 556.070312 477.855469 571.550781 535.125 578.15625 559.699219 Z M 421.503906 421.449219 C 403.316406 476.554688 355.898438 459.773438 345.722656 451.222656 C 394.332031 467.894531 421.503906 421.449219 421.503906 421.449219 Z M 321.578125 209.910156 C 316.273438 213.808594 310.863281 217.8125 306.097656 222.46875 C 306.097656 222.46875 314.324219 169.746094 361.09375 156.105469 C 353.734375 159.894531 348.101562 168.445312 346.371094 176.566406 C 346.046875 178.191406 345.828125 179.921875 346.695312 181.328125 C 348.96875 185.117188 356.007812 182.953125 358.171875 186.742188 C 359.039062 188.257812 358.714844 190.207031 358.820312 192.046875 C 358.929688 193.886719 360.121094 195.945312 361.851562 195.835938 C 362.828125 195.726562 363.691406 194.96875 364.34375 194.210938 C 368.132812 190.421875 372.785156 187.5 377.875 185.875 C 377.550781 189.992188 377.007812 195.078125 377.117188 199.191406 C 377.226562 200.707031 377.332031 202.441406 378.632812 203.304688 C 380.472656 204.605469 383.289062 203.089844 385.34375 204.171875 C 386.101562 204.605469 386.644531 205.363281 387.183594 206.121094 C 389.242188 209.152344 390.757812 212.617188 391.839844 216.082031 C 393.574219 222.144531 394.003906 228.746094 397.578125 233.945312 C 399.308594 223.875 402.992188 214.023438 408.945312 205.6875 C 409.164062 208.285156 409.488281 210.558594 410.351562 212.941406 C 411.328125 215.324219 413.167969 217.597656 415.65625 218.246094 C 416.957031 218.570312 418.363281 218.570312 419.773438 218.679688 C 423.019531 219.113281 425.941406 220.738281 428 223.226562 C 428.972656 224.417969 429.949219 225.933594 431.464844 226.148438 C 432.980469 226.367188 434.277344 225.066406 435.253906 223.984375 C 437.742188 221.167969 440.234375 218.355469 442.722656 215.648438 C 436.769531 231.886719 432.113281 250.292969 431.679688 267.613281 C 426.265625 262.957031 425.617188 253.753906 419.121094 250.941406 C 417.5 250.292969 415.765625 250.074219 414.140625 249.207031 C 411.003906 247.585938 409.59375 243.796875 406.78125 241.738281 C 403.640625 239.464844 399.417969 239.789062 395.519531 239.683594 C 391.625 239.574219 387.183594 238.707031 385.34375 235.351562 C 384.695312 234.160156 384.480469 232.753906 383.9375 231.347656 C 383.179688 229.179688 381.449219 227.339844 379.390625 226.582031 C 377.226562 225.824219 374.519531 226.367188 373.21875 228.207031 C 372.785156 221.925781 373.113281 215.648438 373.976562 209.367188 C 374.953125 203.089844 376.144531 196.378906 373.976562 190.421875 C 366.507812 197.675781 360.554688 206.335938 354.492188 214.78125 C 353.734375 215.757812 352.976562 216.839844 351.890625 217.488281 C 350.808594 218.136719 348.753906 217.378906 347.671875 216.730469 C 346.15625 215.648438 343.988281 215.972656 342.367188 216.730469 C 340.632812 217.488281 339.226562 218.679688 337.601562 219.652344 C 334.355469 221.386719 329.699219 221.496094 327.75 218.355469 C 326.453125 216.296875 326.992188 213.589844 326.558594 211.210938 C 326.453125 210.453125 326.234375 209.800781 325.695312 209.367188 C 324.503906 208.179688 322.769531 209.042969 321.578125 209.910156 Z M 321.578125 209.910156 " fill-opacity="1" fill-rule="nonzero"/><path fill="#110c0e" d="M 327.535156 579.1875 C 329.375 567.925781 333.703125 552.445312 338.359375 546.167969 C 338.359375 546.167969 331.429688 568.46875 329.589844 579.511719 Z M 455.496094 633.640625 C 466.648438 628.984375 488.949219 609.609375 490.359375 590.660156 C 490.359375 590.660156 482.671875 607.441406 476.390625 614.585938 C 469.246094 622.816406 455.496094 633.640625 455.496094 633.640625 Z M 568.519531 547.464844 C 568.519531 547.464844 568.519531 547.574219 568.519531 547.574219 C 568.414062 546.816406 568.195312 546.167969 568.089844 545.410156 C 565.273438 534.691406 557.910156 525.382812 550.007812 515.527344 C 543.1875 506.867188 529.871094 488.464844 529.871094 488.464844 C 534.09375 499.074219 541.347656 508.058594 548.277344 516.828125 C 555.964844 526.464844 563.214844 535.664062 565.921875 545.84375 C 569.0625 557.859375 565.273438 578.96875 556.503906 597.15625 L 558.453125 598.132812 C 558.667969 597.699219 558.777344 597.265625 558.996094 596.941406 C 562.351562 596.398438 569.171875 593.691406 569.171875 593.691406 C 571.878906 584.058594 573.070312 565.761719 568.519531 547.464844 Z M 568.519531 547.464844 " fill-opacity="1" fill-rule="nonzero"/><path fill="#f4cba2" d="M 430.273438 421.449219 C 447.054688 371.757812 437.417969 294.136719 439.476562 270.535156 C 439.476562 270.535156 457.664062 272.269531 467.621094 261.984375 C 489.925781 264.367188 513.957031 236.976562 515.90625 215.757812 C 529.222656 233.511719 524.351562 256.679688 520.886719 279.414062 C 517.421875 302.148438 515.796875 304.964844 524.675781 312.972656 C 530.957031 318.605469 534.3125 322.824219 534.3125 322.824219 L 525.109375 333.652344 C 526.515625 343.070312 521.753906 347.835938 519.804688 348.917969 C 522.835938 354.4375 511.46875 358.335938 509.304688 364.507812 C 507.03125 370.570312 506.488281 380.851562 501.507812 385.941406 C 496.527344 390.921875 449.542969 376.523438 449.542969 376.523438 C 444.671875 393.953125 444.128906 412.03125 445.320312 423.292969 Z M 430.273438 421.449219 " fill-opacity="1" fill-rule="nonzero"/><path fill="#f3eff9" d="M 492.414062 280.929688 C 495.878906 281.578125 504.324219 281.253906 504.324219 281.253906 C 504.429688 281.6875 507.789062 283.636719 508.871094 287.316406 C 508.976562 293.703125 505.40625 306.371094 500.101562 312.542969 C 488.410156 312.648438 471.953125 303.449219 471.304688 300.308594 C 470.652344 297.167969 471.304688 291.863281 471.304688 291.863281 C 471.519531 286.667969 484.511719 279.414062 492.414062 280.929688 Z M 492.414062 280.929688 " fill-opacity="1" fill-rule="nonzero"/><path fill="#f4cba2" d="M 242.441406 624.546875 C 242.441406 624.546875 280.441406 646.417969 311.292969 639.378906 C 311.292969 639.378906 305.015625 658.648438 298.085938 668.824219 C 298.085938 668.824219 247.855469 658.433594 235.621094 652.910156 Z M 600.78125 634.941406 L 585.410156 584.816406 C 572.417969 594.992188 557.910156 597.265625 557.910156 597.265625 C 552.605469 610.90625 544.054688 617.617188 544.054688 617.617188 C 545.679688 639.488281 544.921875 660.164062 544.921875 660.164062 C 575.015625 651.613281 600.78125 634.941406 600.78125 634.941406 Z M 501.507812 302.363281 C 492.199219 302.363281 484.621094 294.785156 484.621094 285.476562 C 484.621094 284.070312 484.835938 282.769531 485.160156 281.46875 C 485.160156 281.46875 485.050781 281.46875 485.050781 281.46875 C 480.722656 293.703125 486.675781 308.101562 491.007812 311.132812 C 494.148438 312 497.285156 312.542969 500.210938 312.542969 C 502.484375 309.835938 504.539062 305.9375 506.054688 301.824219 C 504.429688 302.148438 503.023438 302.363281 501.507812 302.363281 Z M 453.550781 497.667969 C 443.480469 487.164062 429.839844 493.226562 430.382812 502.644531 C 430.921875 512.066406 460.476562 519.210938 465.566406 528.628906 C 472.386719 506.976562 475.308594 499.289062 469.570312 492.144531 C 463.726562 484.890625 453.550781 492.578125 453.550781 497.667969 Z M 453.550781 497.667969 " fill-opacity="1" fill-rule="nonzero"/><g clip-path="url(#ace783e835)"><path fill="#110c0e" d="M 563.972656 433.578125 L 564.515625 431.410156 C 567.113281 421.558594 559.644531 399.691406 554.121094 383.777344 C 552.5 379.011719 551.089844 374.898438 550.332031 372.300781 L 549.574219 369.484375 L 548.277344 372.085938 C 537.667969 394.277344 549.46875 413.765625 562.566406 431.734375 Z M 549.144531 375.65625 C 549.902344 378.148438 550.984375 381.070312 552.066406 384.425781 C 556.722656 398.066406 563.648438 418.09375 562.785156 428.378906 C 551.417969 412.140625 541.566406 394.820312 549.144531 375.65625 Z M 242.441406 452.523438 L 243.199219 451.65625 C 259.546875 432.820312 260.304688 396.011719 254.457031 377.714844 L 253.375 374.359375 L 252.402344 377.714844 C 250.453125 384.425781 233.5625 443.210938 241.574219 451.65625 Z M 253.484375 382.042969 C 257.8125 400.339844 256.515625 431.734375 242.550781 449.164062 C 238.761719 441.046875 246.554688 406.511719 253.484375 382.042969 Z M 480.613281 267.070312 C 472.710938 267.179688 466.757812 269.996094 466.757812 269.996094 C 466.757812 269.996094 475.527344 261.226562 482.886719 261.335938 C 489.382812 261.441406 511.683594 264.039062 511.683594 264.039062 C 511.144531 266.53125 509.734375 269.5625 508.871094 269.996094 C 505.082031 269.777344 484.945312 267.070312 480.613281 267.070312 Z M 428.972656 387.671875 C 428.972656 387.671875 427.132812 402.9375 420.53125 421.019531 C 419.230469 423.074219 392.382812 466.054688 346.15625 450.25 L 342.90625 449.164062 C 326.558594 441.695312 310.644531 442.019531 296.464844 449.921875 C 296.464844 449.921875 309.886719 446.566406 315.734375 446.027344 C 328.507812 444.945312 340.09375 449.492188 348.753906 454.578125 C 354.492188 457.933594 364.449219 461.617188 375.492188 461.617188 C 379.605469 461.617188 383.9375 461.074219 388.269531 459.882812 C 404.183594 455.335938 415.65625 442.5625 422.476562 421.882812 C 423.34375 419.503906 424.101562 417.121094 424.75 414.957031 L 425.617188 412.25 L 425.402344 412.683594 C 429.191406 398.609375 428.972656 388.214844 428.972656 387.671875 Z M 387.726562 457.828125 C 374.953125 461.507812 361.636719 458.367188 353.191406 454.578125 C 386.101562 461.722656 408.296875 440.289062 417.605469 428.8125 C 410.894531 444.292969 400.824219 454.039062 387.726562 457.828125 Z M 224.144531 548.007812 C 226.203125 533.933594 227.5 525.921875 229.339844 523.324219 C 229.339844 523.324219 228.476562 533.933594 227.066406 542.59375 C 226.742188 544.433594 226.527344 546.382812 226.203125 548.222656 C 223.171875 568.792969 219.273438 594.34375 211.261719 604.953125 C 211.261719 604.953125 215.269531 592.609375 217.324219 584.492188 C 220.464844 573.125 222.519531 559.265625 224.144531 548.007812 Z M 282.171875 387.566406 C 285.421875 414.089844 267.664062 439.097656 245.90625 463.238281 C 240.058594 469.734375 226.417969 480.886719 226.417969 480.886719 C 249.046875 457.070312 270.804688 434.226562 277.949219 410.191406 C 280.222656 402.9375 282.171875 387.566406 282.171875 387.566406 Z M 598.941406 521.375 C 598.941406 521.050781 598.941406 520.726562 598.941406 520.402344 C 599.050781 518.34375 599.265625 516.179688 599.808594 513.90625 C 602.191406 526.246094 607.171875 539.238281 623.734375 547.574219 C 642.136719 556.882812 652.746094 577.886719 655.347656 589.6875 L 655.886719 591.960938 L 661.085938 585.03125 L 660.976562 584.597656 C 658.050781 564.464844 641.054688 549.632812 627.414062 540.753906 C 615.398438 532.851562 605.980469 518.34375 602.949219 502.753906 C 607.929688 479.371094 592.121094 462.480469 579.457031 448.839844 C 575.558594 444.617188 571.769531 440.613281 569.0625 436.933594 C 572.960938 409.109375 562.457031 384.425781 556.9375 371.21875 C 555.53125 367.96875 554.449219 365.371094 554.121094 363.964844 C 560.617188 344.476562 557.152344 326.722656 543.1875 306.261719 C 529.546875 286.34375 527.164062 279.089844 534.636719 252.78125 C 542.753906 224.417969 536.800781 195.945312 521.320312 189.234375 C 519.914062 188.042969 506.703125 177.109375 479.421875 159.675781 C 451.058594 141.597656 378.308594 124.167969 331 163.792969 C 303.285156 186.960938 297.113281 221.820312 291.699219 252.566406 C 288.128906 272.917969 284.664062 292.078125 275.351562 304.097656 C 255.433594 329.539062 247.636719 350.539062 250.667969 370.351562 C 248.71875 375.546875 226.636719 436.933594 236.269531 455.554688 C 198.488281 484.890625 178.242188 516.285156 175.859375 548.65625 C 174.671875 564.03125 168.824219 573.449219 163.195312 582.652344 C 156.699219 593.152344 150.636719 603.003906 153.882812 619.675781 L 153.992188 620.109375 L 154.425781 620.324219 C 155.292969 620.867188 247.636719 673.589844 382.746094 680.300781 C 391.730469 680.734375 400.71875 680.949219 409.59375 680.949219 C 462.75 680.949219 512.765625 673.046875 555.421875 657.675781 C 599.050781 641.976562 634.453125 618.59375 655.128906 591.851562 L 655.5625 591.3125 L 655.238281 590.660156 C 645.820312 573.449219 633.042969 563.164062 621.785156 553.960938 C 608.902344 543.570312 598.941406 535.449219 598.941406 521.375 Z M 243.089844 626.171875 C 248.828125 629.3125 273.511719 641.761719 298.085938 641.761719 C 301.984375 641.761719 305.773438 641.4375 309.5625 640.679688 C 305.664062 651.394531 301.660156 661.140625 297.652344 667.417969 C 275.136719 662.871094 254.78125 657.457031 237.027344 651.9375 C 238.652344 645.332031 240.710938 636.457031 243.089844 626.171875 Z M 299.925781 667.960938 C 311.835938 648.472656 324.394531 600.730469 328.398438 584.816406 C 333.164062 608.742188 349.402344 628.878906 363.691406 646.847656 C 373.113281 658.648438 381.339844 668.824219 384.695312 678.246094 C 384.046875 678.246094 383.289062 678.136719 382.636719 678.136719 C 352.867188 676.621094 325.042969 672.832031 299.925781 667.960938 Z M 387.183594 678.246094 C 383.828125 668.394531 375.277344 657.675781 365.535156 645.441406 C 350.269531 626.386719 333.054688 604.84375 329.808594 579.1875 L 329.050781 573.230469 L 327.640625 579.078125 C 327.535156 579.511719 319.847656 611.554688 310.429688 638.296875 C 282.28125 644.359375 248.828125 626.710938 243.632812 623.898438 C 250.667969 594.019531 259.980469 553.636719 265.71875 526.03125 C 276.433594 474.605469 305.773438 452.628906 319.199219 452.304688 L 319.304688 452.304688 C 323.851562 451.65625 331 454.578125 339.226562 458.042969 C 359.6875 466.488281 390.648438 479.261719 416.632812 449.164062 C 422.804688 442.019531 427.457031 432.925781 431.03125 422.640625 L 444.453125 424.15625 C 444.886719 427.945312 445.644531 430.976562 446.402344 432.925781 C 449.652344 440.289062 465.566406 450.679688 485.484375 454.6875 C 492.632812 456.09375 499.453125 456.203125 506.164062 456.417969 C 517.964844 456.636719 528.140625 456.851562 537.019531 463.996094 C 555.636719 478.9375 571.769531 539.996094 577.183594 560.023438 C 578.699219 565.761719 581.1875 574.421875 584.21875 584.382812 C 572.417969 593.910156 557.585938 596.832031 557.480469 596.832031 L 556.9375 596.941406 L 556.722656 597.480469 C 550.332031 612.3125 543.621094 616.535156 543.621094 616.644531 L 543.082031 616.96875 L 543.082031 617.617188 C 543.082031 617.945312 545.246094 648.039062 544.054688 659.191406 C 497.828125 674.023438 443.914062 680.625 387.183594 678.246094 Z M 440.773438 301.28125 C 440.339844 288.507812 440.015625 278.332031 440.449219 271.726562 C 444.5625 271.945312 459.070312 271.945312 467.949219 263.175781 C 476.609375 263.933594 486.136719 260.359375 495.011719 253.214844 C 506.054688 244.230469 514.5 230.695312 516.554688 218.789062 C 526.734375 234.59375 523.59375 254.730469 520.5625 274.324219 C 520.34375 276.058594 520.019531 277.679688 519.804688 279.414062 C 519.480469 281.6875 519.15625 283.851562 518.828125 285.800781 C 516.125 302.796875 515.582031 306.371094 524.027344 313.949219 C 528.679688 318.171875 531.710938 321.527344 532.902344 322.933594 L 524.027344 333.433594 L 524.132812 333.867188 C 525.648438 344.042969 519.804688 347.832031 519.480469 348.050781 C 517.3125 349.132812 508.761719 350.109375 508.761719 350.109375 C 509.304688 350.214844 512.550781 350.757812 515.691406 350.757812 C 516.988281 350.757812 518.289062 350.648438 519.261719 350.324219 C 519.695312 352.273438 517.640625 354.222656 514.5 356.929688 C 512.007812 359.09375 509.304688 361.367188 508.328125 364.179688 C 507.570312 366.128906 507.03125 368.511719 506.488281 371.109375 C 505.296875 376.199219 504 382.042969 500.859375 385.183594 C 497.503906 388.539062 467.949219 380.960938 449.976562 375.441406 L 448.894531 375.117188 L 448.570312 376.199219 C 444.023438 392.546875 443.15625 410.300781 444.128906 421.992188 L 431.679688 420.585938 C 443.480469 384.316406 441.855469 334.300781 440.773438 301.28125 Z M 491.117188 387.566406 C 488.839844 395.253906 494.039062 407.808594 499.558594 421.019531 C 504.429688 432.710938 509.519531 444.726562 509.84375 454.363281 C 508.652344 454.363281 507.355469 454.253906 506.164062 454.253906 C 499.667969 454.144531 492.847656 454.039062 485.917969 452.628906 C 465.566406 448.625 451.058594 438.125 448.351562 432.167969 C 445.539062 425.890625 443.914062 401.855469 450.300781 377.820312 C 457.339844 379.878906 477.800781 385.941406 491.117188 387.566406 Z M 554.554688 655.511719 C 551.742188 656.484375 548.925781 657.457031 546.113281 658.433594 C 547.085938 647.28125 545.355469 622.382812 545.136719 618.050781 C 546.976562 616.753906 552.824219 611.664062 558.34375 598.890625 C 561.160156 598.238281 573.828125 595.207031 584.761719 586.65625 C 589.308594 601.8125 594.828125 619.675781 599.59375 635.046875 C 586.058594 642.734375 570.902344 649.664062 554.554688 655.511719 Z M 620.269531 555.585938 C 631.203125 564.464844 643.652344 574.53125 652.855469 590.988281 C 648.957031 595.964844 644.519531 600.839844 639.648438 605.492188 C 637.589844 600.839844 630.988281 594.667969 622.976562 587.089844 C 616.914062 581.242188 610.09375 574.855469 604.140625 568.035156 C 597.425781 560.457031 587.574219 544.867188 587.574219 544.867188 C 592.015625 560.671875 608.359375 576.15625 621.570312 588.605469 C 629.6875 596.292969 636.617188 602.894531 638.023438 607.007812 C 627.738281 616.644531 615.507812 625.628906 601.648438 633.640625 C 593.421875 607.335938 583.027344 573.664062 579.238281 559.15625 C 569.929688 524.082031 555.53125 475.6875 538.425781 461.941406 C 530.523438 455.660156 521.644531 454.46875 512.117188 454.039062 C 511.792969 444.078125 506.597656 431.734375 501.617188 419.828125 C 496.09375 406.726562 490.898438 394.277344 493.390625 387.457031 C 497.828125 387.890625 501.074219 387.566406 502.375 386.375 C 506.054688 382.695312 507.355469 376.632812 508.652344 371.21875 C 509.195312 368.726562 509.734375 366.453125 510.386719 364.613281 C 511.25 362.339844 513.632812 360.285156 515.90625 358.335938 C 519.15625 355.519531 522.511719 352.707031 521.210938 349.132812 C 523.808594 347.183594 527.273438 342.097656 526.300781 333.761719 L 535.71875 322.609375 L 535.175781 321.960938 C 535.070312 321.742188 531.710938 317.628906 525.433594 312 C 517.855469 305.179688 518.289062 302.582031 520.996094 285.800781 C 521.320312 283.851562 521.644531 281.6875 521.96875 279.414062 C 522.1875 277.679688 522.511719 276.058594 522.726562 274.324219 C 525.976562 253.753906 529.332031 232.429688 517.421875 215.757812 C 517.964844 210.019531 517.53125 191.289062 512.550781 185.660156 C 512.550781 185.660156 515.367188 204.390625 515.148438 212.726562 L 514.933594 215.429688 C 513.742188 227.449219 505.296875 241.847656 493.820312 251.15625 C 486.460938 257.21875 478.558594 260.46875 471.195312 260.792969 C 478.230469 254.621094 483.210938 238.273438 485.59375 228.207031 L 485.703125 227.882812 C 485.703125 227.882812 473.253906 257.871094 467.515625 260.683594 L 467.296875 260.683594 L 466.972656 261.117188 C 462.75 265.449219 456.90625 267.613281 451.707031 268.585938 C 458.421875 260.683594 462.535156 238.058594 462.96875 235.242188 C 462.96875 235.242188 454.199219 266.207031 447.917969 268.914062 L 448.027344 269.128906 C 444.671875 269.453125 441.964844 269.453125 440.664062 269.453125 C 440.773438 251.050781 449.867188 210.667969 449.867188 210.667969 C 441.207031 225.714844 438.390625 252.238281 438.5 270.429688 C 437.960938 277.140625 438.285156 287.75 438.71875 301.171875 C 440.125 344.042969 442.398438 415.929688 415.117188 447.648438 C 390.109375 476.664062 361.3125 464.648438 340.199219 455.984375 C 331.324219 452.304688 324.285156 449.382812 319.199219 450.140625 C 302.417969 450.679688 273.835938 477.097656 263.769531 525.597656 C 255.867188 563.488281 241.359375 625.195312 235.078125 651.289062 C 202.386719 640.894531 178.566406 630.070312 165.902344 623.789062 C 166.007812 615.886719 172.613281 605.167969 179.648438 593.910156 C 186.796875 582.433594 194.808594 569.335938 197.621094 556.777344 C 197.621094 556.777344 191.449219 568.683594 188.3125 574.855469 C 185.171875 581.027344 181.382812 587.089844 177.808594 592.828125 C 170.664062 604.410156 164.386719 614.585938 163.734375 622.816406 C 159.621094 620.757812 156.914062 619.242188 155.941406 618.703125 C 153.019531 603.21875 158.539062 594.125 165.035156 583.734375 C 170.554688 574.746094 176.835938 564.679688 178.027344 548.765625 C 180.40625 516.828125 200.652344 485.757812 238.21875 456.417969 L 238.976562 455.769531 L 238.4375 454.902344 C 227.933594 437.90625 252.402344 371.109375 252.726562 370.460938 L 252.835938 370.242188 L 252.835938 369.917969 C 249.695312 350.648438 257.382812 329.972656 276.976562 304.964844 C 286.71875 292.621094 290.074219 273.132812 293.757812 252.457031 C 299.167969 222.035156 305.230469 187.609375 332.296875 164.984375 C 357.738281 143.871094 389.351562 140.839844 411.4375 142.03125 C 440.882812 143.65625 465.78125 153.398438 478.125 161.300781 C 506.703125 179.597656 519.804688 190.640625 519.914062 190.75 L 520.238281 190.964844 C 534.851562 197.242188 540.265625 224.632812 532.46875 252.023438 C 524.785156 278.980469 527.382812 287.101562 541.347656 307.34375 C 554.988281 327.265625 558.34375 344.585938 551.957031 363.421875 L 551.847656 363.75 L 551.957031 364.074219 C 552.28125 365.695312 553.363281 368.296875 554.988281 371.976562 C 560.511719 385.183594 570.902344 409.652344 566.898438 437.039062 L 566.789062 437.472656 L 567.003906 437.796875 C 569.929688 441.804688 573.71875 445.917969 577.832031 450.355469 C 590.929688 464.320312 605.65625 480.128906 600.78125 502.539062 L 600.78125 502.972656 C 603.921875 519.210938 613.664062 534.476562 626.332031 542.59375 C 639.539062 551.148438 655.777344 565.4375 658.808594 584.492188 L 656.863281 586.980469 C 653.398438 574.53125 642.679688 554.828125 624.707031 545.625 C 606.84375 536.53125 603.164062 521.808594 601.109375 508.707031 L 600.351562 504.269531 L 598.941406 508.601562 C 598.726562 509.25 598.507812 510.007812 598.292969 510.65625 C 596.128906 494.203125 587.898438 479.152344 576.316406 471.140625 C 561.917969 461.289062 539.507812 435.417969 536.476562 414.414062 C 536.476562 414.414062 538.316406 429.027344 542.214844 435.957031 C 551.523438 452.304688 566.355469 466.921875 575.125 472.984375 C 588.441406 482.183594 597.101562 501.128906 596.777344 520.507812 C 596.234375 536.097656 607.171875 544.867188 620.269531 555.585938 Z M 356.332031 273.566406 C 355.355469 295.976562 354.492188 317.089844 346.695312 330.296875 C 346.695312 330.296875 353.300781 295.652344 354.164062 273.460938 C 355.464844 243.796875 356.871094 210.234375 375.386719 190.53125 C 375.386719 190.53125 362.609375 216.082031 359.902344 231.453125 C 357.628906 245.203125 356.980469 259.816406 356.332031 273.566406 Z M 317.898438 430.652344 C 304.800781 431.953125 289.316406 437.691406 289.316406 437.691406 C 293.105469 430.871094 303.933594 429.785156 317.683594 428.488281 C 336.628906 426.648438 360.230469 424.480469 380.148438 407.160156 C 399.203125 390.597656 403.53125 362.015625 403.640625 340.039062 C 403.75 322.71875 403.316406 308.753906 403.316406 308.753906 C 403.425781 309.402344 416.632812 378.472656 381.554688 408.785156 C 361.09375 426.539062 336.085938 428.921875 317.898438 430.652344 Z M 296.464844 297.601562 C 290.183594 310.59375 280.441406 331.8125 280.441406 331.8125 C 282.171875 322.285156 288.234375 309.835938 294.515625 296.734375 C 298.738281 287.859375 303.175781 278.765625 306.53125 270.101562 C 309.5625 262.199219 314.757812 247.691406 314.757812 247.691406 C 313.242188 262.742188 304.800781 280.386719 296.464844 297.601562 Z M 476.285156 161.519531 C 476.285156 161.519531 460.910156 163.25 455.390625 164.980469 C 445.753906 167.90625 438.71875 171.695312 438.71875 171.695312 C 439.257812 171.152344 453.222656 157.835938 476.285156 161.519531 Z M 437.632812 152.640625 C 437.632812 152.640625 419.773438 165.199219 412.300781 177.214844 C 404.832031 189.234375 397.035156 220.953125 397.035156 220.953125 C 397.578125 186.960938 418.90625 156.972656 437.632812 152.640625 Z M 460.371094 488.679688 C 457.011719 489.871094 453.980469 492.6875 452.898438 495.5 C 446.945312 490.304688 440.449219 490.304688 436.117188 492.144531 C 431.679688 494.09375 428.972656 498.097656 429.296875 502.644531 C 429.625 508.277344 438.285156 512.714844 447.59375 517.476562 C 454.957031 521.160156 462.425781 525.054688 464.589844 529.0625 L 465.78125 531.335938 L 467.621094 525.597656 C 473.902344 505.894531 476.175781 498.53125 470.328125 491.386719 C 467.839844 488.246094 464.160156 487.273438 460.371094 488.679688 Z M 465.457031 524.949219 L 465.132812 526.140625 C 461.886719 522.351562 455.28125 518.992188 448.460938 515.527344 C 440.234375 511.308594 431.679688 506.976562 431.355469 502.539062 C 431.140625 498.964844 433.304688 495.824219 436.875 494.203125 C 438.285156 493.660156 439.90625 493.226562 441.640625 493.226562 C 445.105469 493.226562 449.003906 494.636719 452.683594 498.425781 L 454.523438 500.371094 L 454.523438 497.667969 C 454.523438 495.5 457.230469 492.035156 460.910156 490.738281 C 462.96875 489.980469 466 489.761719 468.488281 492.792969 C 473.683594 499.074219 471.519531 506.109375 465.457031 524.949219 Z M 466.863281 295.542969 C 468.8125 295.003906 470.871094 293.703125 482.453125 287.425781 C 481.589844 295.867188 484.292969 304.421875 487.433594 309.078125 C 479.746094 306.371094 471.195312 300.199219 471.195312 300.199219 C 471.195312 300.199219 474.550781 307.453125 490.359375 312.109375 L 490.574219 312.109375 C 493.929688 313.082031 497.070312 313.515625 499.777344 313.515625 C 499.882812 313.515625 499.992188 313.515625 500.101562 313.515625 L 500.640625 313.515625 L 500.96875 313.191406 C 506.273438 307.019531 510.167969 294.246094 509.953125 287.207031 L 509.953125 286.992188 C 509.519531 285.585938 508.871094 284.5 508.21875 283.636719 C 507.136719 281.039062 504.429688 277.679688 497.828125 276.164062 C 489.273438 274.21875 479.746094 277.464844 472.496094 283.3125 C 465.242188 289.046875 456.90625 293.378906 456.90625 293.378906 C 456.90625 293.378906 464.917969 296.085938 466.863281 295.542969 Z M 499.558594 311.457031 C 497.070312 311.457031 494.363281 311.027344 491.332031 310.160156 C 488.515625 308.101562 484.621094 300.089844 484.511719 291.105469 C 485.59375 294.027344 487.542969 297.492188 490.789062 299.875 C 491.117188 300.089844 491.441406 300.308594 491.765625 300.523438 C 491.441406 302.582031 492.304688 304.964844 494.796875 305.289062 C 496.746094 305.503906 497.609375 303.988281 498.042969 303.015625 C 499.125 303.230469 500.210938 303.339844 501.398438 303.339844 C 502.375 303.339844 503.347656 303.230469 504.324219 303.121094 C 502.914062 306.261719 501.292969 309.292969 499.558594 311.457031 Z M 505.082031 300.742188 C 499.777344 301.605469 495.445312 300.742188 492.089844 298.140625 C 487.542969 294.679688 485.808594 288.722656 485.269531 285.910156 C 492.847656 282.226562 501.726562 282.011719 506.273438 284.71875 C 506.921875 285.476562 507.460938 286.34375 507.789062 287.425781 C 507.789062 290.890625 506.8125 295.976562 505.082031 300.742188 Z M 505.082031 300.742188 " fill-opacity="1" fill-rule="nonzero"/></g></svg>